<svg xmlns="http://www.w3.org/2000/svg" viewBox="0 0 220 120"><g fill="none" stroke-linecap="round" stroke-linejoin="round"><rect x="22" y="18" width="72" height="88" rx="8" stroke="#27446B" stroke-width="4"/><path d="M38 41l7 7 13-15M38 65l7 7 13-15M38 89l7 7 13-15M69 42h11M69 66h11M69 90h11" stroke="#6B88AD" stroke-width="3"/><circle cx="145" cy="61" r="34" stroke="#D4A037" stroke-width="4"/><path d="M145 37v49M157 45c-5-5-23-5-23 7 0 15 25 5 25 19 0 12-18 13-27 5" stroke="#27446B" stroke-width="4"/><path d="m183 47 17 14-17 14" stroke="#6B88AD" stroke-width="4"/></g></svg>
